HIERARCHY
ROOT Hips
{
    OFFSET   0.000000   0.000000   0.000000
    CHANNELS 6 Xposition Yposition Zposition Zrotation Xrotation Yrotation
    JOINT Chest
    {
        OFFSET   0.000000   8.007230   0.000000
        CHANNELS 3 Zrotation Xrotation Yrotation
        JOINT Chest2
        {
            OFFSET   0.000000  22.077100   0.000000
            CHANNELS 3 Zrotation Xrotation Yrotation
            JOINT Neck
            {
                OFFSET   0.000000  23.254800   0.000000
                CHANNELS 3 Zrotation Xrotation Yrotation
                JOINT Head
                {
                    OFFSET   0.000010  14.370000   1.956600
                    CHANNELS 3 Zrotation Xrotation Yrotation
                    End Site
                    {
                        OFFSET   0.000000  19.566000   0.000000
                    }
                }
            }
            JOINT LeftCollar
            {
                OFFSET   3.911900  19.017000  -0.467062
                CHANNELS 3 Zrotation Xrotation Yrotation
                JOINT LeftShoulder
                {
                    OFFSET  10.383700   0.000000   0.000000
                    CHANNELS 3 Zrotation Xrotation Yrotation
                    JOINT LeftElbow
                    {
                        OFFSET  26.662100   0.001193   0.000835
                        CHANNELS 3 Zrotation Xrotation Yrotation
                        JOINT LeftWrist
                        {
                            OFFSET  28.869000  -0.000058  -0.000075
                            CHANNELS 3 Zrotation Xrotation Yrotation
                            JOINT LeftFinger0
                            {
                                OFFSET   2.044660  -2.323460   3.252850
                                CHANNELS 3 Zrotation Xrotation Yrotation
                                JOINT LeftFinger01
                                {
                                    OFFSET   3.088130   0.000000   0.000000
                                    CHANNELS 3 Zrotation Xrotation Yrotation
                                    JOINT LeftFinger02
                                    {
                                        OFFSET   2.639450   0.000000   0.000000
                                        CHANNELS 3 Zrotation Xrotation Yrotation
                                        End Site
                                        {
                                            OFFSET   2.582190   0.000000   0.000000
                                        }
                                    }
                                }
                            }
                            JOINT LeftFinger1
                            {
                                OFFSET   8.364480   0.000000   3.252850
                                CHANNELS 3 Zrotation Xrotation Yrotation
                                JOINT LeftFinger11
                                {
                                    OFFSET   4.646920   0.000000   0.000000
                                    CHANNELS 3 Zrotation Xrotation Yrotation
                                    JOINT LeftFinger12
                                    {
                                        OFFSET   2.323460   0.000000   0.000000
                                        CHANNELS 3 Zrotation Xrotation Yrotation
                                        End Site
                                        {
                                            OFFSET   2.273050   0.000000   0.000000
                                        }
                                    }
                                }
                            }
                            JOINT LeftFinger2
                            {
                                OFFSET   8.364490   0.000016   1.078090
                                CHANNELS 3 Zrotation Xrotation Yrotation
                                JOINT LeftFinger21
                                {
                                    OFFSET   5.111620   0.000000   0.000000
                                    CHANNELS 3 Zrotation Xrotation Yrotation
                                    JOINT LeftFinger22
                                    {
                                        OFFSET   2.788150   0.000012   0.000000
                                        CHANNELS 3 Zrotation Xrotation Yrotation
                                        End Site
                                        {
                                            OFFSET   2.727660   0.000000   0.000000
                                        }
                                    }
                                }
                            }
                            JOINT LeftFinger3
                            {
                                OFFSET   7.899780   0.000014  -1.078090
                                CHANNELS 3 Zrotation Xrotation Yrotation
                                JOINT LeftFinger31
                                {
                                    OFFSET   4.646930   0.000000   0.000000
                                    CHANNELS 3 Zrotation Xrotation Yrotation
                                    JOINT LeftFinger32
                                    {
                                        OFFSET   2.323470   0.000000   0.000000
                                        CHANNELS 3 Zrotation Xrotation Yrotation
                                        End Site
                                        {
                                            OFFSET   2.273050   0.000000   0.000000
                                        }
                                    }
                                }
                            }
                            JOINT LeftFinger4
                            {
                                OFFSET   7.435090   0.000000  -3.252850
                                CHANNELS 3 Zrotation Xrotation Yrotation
                                JOINT LeftFinger41
                                {
                                    OFFSET   3.717550   0.000000   0.000000
                                    CHANNELS 3 Zrotation Xrotation Yrotation
                                    JOINT LeftFinger42
                                    {
                                        OFFSET   1.858770   0.000000   0.000000
                                        CHANNELS 3 Zrotation Xrotation Yrotation
                                        End Site
                                        {
                                            OFFSET   1.818440   0.000000   0.000000
                                        }
                                    }
                                }
                            }
                        }
                    }
                }
            }
            JOINT RightCollar
            {
                OFFSET  -3.911900  19.017000  -0.467063
                CHANNELS 3 Zrotation Xrotation Yrotation
                JOINT RightShoulder
                {
                    OFFSET -10.383700   0.000023   0.000000
                    CHANNELS 3 Zrotation Xrotation Yrotation
                    JOINT RightElbow
                    {
                        OFFSET -26.662100   0.001246   0.001011
                        CHANNELS 3 Zrotation Xrotation Yrotation
                        JOINT RightWrist
                        {
                            OFFSET -28.869000  -0.000026  -0.000078
                            CHANNELS 3 Zrotation Xrotation Yrotation
                            JOINT RightFinger0
                            {
                                OFFSET  -2.044660  -2.323490   3.252850
                                CHANNELS 3 Zrotation Xrotation Yrotation
                                JOINT RightFinger01
                                {
                                    OFFSET  -3.088130   0.000000   0.000000
                                    CHANNELS 3 Zrotation Xrotation Yrotation
                                    JOINT RightFinger02
                                    {
                                        OFFSET  -2.639460   0.000000   0.000000
                                        CHANNELS 3 Zrotation Xrotation Yrotation
                                        End Site
                                        {
                                            OFFSET  -2.582190   0.000000   0.000000
                                        }
                                    }
                                }
                            }
                            JOINT RightFinger1
                            {
                                OFFSET  -8.364480   0.000000   3.252850
                                CHANNELS 3 Zrotation Xrotation Yrotation
                                JOINT RightFinger11
                                {
                                    OFFSET  -4.646920   0.000000   0.000000
                                    CHANNELS 3 Zrotation Xrotation Yrotation
                                    JOINT RightFinger12
                                    {
                                        OFFSET  -2.323470   0.000000   0.000000
                                        CHANNELS 3 Zrotation Xrotation Yrotation
                                        End Site
                                        {
                                            OFFSET  -2.273050   0.000000   0.000000
                                        }
                                    }
                                }
                            }
                            JOINT RightFinger2
                            {
                                OFFSET  -8.364480   0.000000   1.078090
                                CHANNELS 3 Zrotation Xrotation Yrotation
                                JOINT RightFinger21
                                {
                                    OFFSET  -5.111620   0.000000   0.000000
                                    CHANNELS 3 Zrotation Xrotation Yrotation
                                    JOINT RightFinger22
                                    {
                                        OFFSET  -2.788160   0.000000   0.000000
                                        CHANNELS 3 Zrotation Xrotation Yrotation
                                        End Site
                                        {
                                            OFFSET  -2.727660   0.000000   0.000000
                                        }
                                    }
                                }
                            }
                            JOINT RightFinger3
                            {
                                OFFSET  -7.899780   0.000000  -1.078090
                                CHANNELS 3 Zrotation Xrotation Yrotation
                                JOINT RightFinger31
                                {
                                    OFFSET  -4.646930   0.000000   0.000000
                                    CHANNELS 3 Zrotation Xrotation Yrotation
                                    JOINT RightFinger32
                                    {
                                        OFFSET  -2.323470   0.000000   0.000000
                                        CHANNELS 3 Zrotation Xrotation Yrotation
                                        End Site
                                        {
                                            OFFSET  -2.273050   0.000000   0.000000
                                        }
                                    }
                                }
                            }
                            JOINT RightFinger4
                            {
                                OFFSET  -7.435090   0.000000  -3.252850
                                CHANNELS 3 Zrotation Xrotation Yrotation
                                JOINT RightFinger41
                                {
                                    OFFSET  -3.717550   0.000000   0.000000
                                    CHANNELS 3 Zrotation Xrotation Yrotation
                                    JOINT RightFinger42
                                    {
                                        OFFSET  -1.858760   0.000000   0.000000
                                        CHANNELS 3 Zrotation Xrotation Yrotation
                                        End Site
                                        {
                                            OFFSET  -1.818440   0.000000   0.000000
                                        }
                                    }
                                }
                            }
                        }
                    }
                }
            }
        }
    }
    JOINT LeftHip
    {
        OFFSET   9.783010   0.000000   0.000000
        CHANNELS 3 Zrotation Xrotation Yrotation
        JOINT LeftKnee
        {
            OFFSET   0.000073 -41.789100   0.001749
            CHANNELS 3 Zrotation Xrotation Yrotation
            JOINT LeftAnkle
            {
                OFFSET   0.000111 -41.133200  -0.000179
                CHANNELS 3 Zrotation Xrotation Yrotation
                JOINT LeftToe
                {
                    OFFSET   0.000000  -6.358960  14.674500
                    CHANNELS 3 Zrotation Xrotation Yrotation
                    End Site
                    {
                        OFFSET   0.000000   0.000000   3.913200
                    }
                }
            }
        }
    }
    JOINT RightHip
    {
        OFFSET  -9.783010   0.000000   0.000000
        CHANNELS 3 Zrotation Xrotation Yrotation
        JOINT RightKnee
        {
            OFFSET   0.000424 -41.789200   0.005205
            CHANNELS 3 Zrotation Xrotation Yrotation
            JOINT RightAnkle
            {
                OFFSET   0.000000 -41.133200  -0.000155
                CHANNELS 3 Zrotation Xrotation Yrotation
                JOINT RightToe
                {
                    OFFSET   0.000000  -6.358960  14.674500
                    CHANNELS 3 Zrotation Xrotation Yrotation
                    End Site
                    {
                        OFFSET   0.000000   0.000000   3.913200
                    }
                }
            }
        }
    }
}
MOTION
Frames: 5
Frame Time:   0.016667
 -9.262020  87.927000   2.334770  -1.099700 -26.229100   6.448910   4.004040  14.119500  -1.886830   8.925650  28.052700  -5.062370   6.264320   1.481210  -0.168689  10.309600   2.896390  -2.064870  -2.580740  -3.265600   1.698460 -74.127500  20.192500 -10.064900  -0.599987 -15.435100 -18.982400  14.473500  -3.841890   1.829560  39.338600  34.847300 -52.753100 -34.966300  -0.001332  -0.000862 -12.585800  -0.002589  -0.001504 -32.404500   5.721430  -8.928870 -26.878500   0.001476   0.003166 -18.814900   0.002267   0.003448 -28.992500  -0.088979   0.160464 -43.503500  -0.003932  -0.000443 -28.973300   0.002992   0.011674 -28.583000  -0.087818   0.161064 -37.226900  -0.002549   0.003359 -24.793100  -0.002145   0.001593 -32.084400  -0.097386   0.155432 -48.126600  -0.002168   0.001197 -32.052400   0.000843  -0.000232   5.874900  -4.306190   9.318180  69.594000   7.313700   3.190560  -2.173480 -10.896000  12.393100 -10.964400   3.626040   2.682600 -44.450400  40.806000  80.693400  27.302800   0.008238  -0.004169   8.651410   0.002731   0.006349  35.407200   8.936450  12.326900  29.760600   0.003664   0.010721  20.832400   0.005918   0.005625  29.099200   2.629570   4.712180  43.812300   0.007499   0.003501  29.179000   0.006374   0.003568  28.666500   2.521280   4.601770  40.536400   0.008972   0.009919  26.997300   0.007767   0.004363  38.165800  -0.558603  -0.710633  57.254000   0.007375   0.011466  38.131100   0.010658   0.001512  11.519900   8.086080   2.306640   1.087930  21.163700   8.017680  -7.890670  -6.405230  -0.679030   0.000000   0.000000   0.000000  13.099900  29.179500  -6.668960   0.555397   2.035100 -11.542600  -5.482670  -8.158930  -2.575810   0.000000   0.000000   0.000000
 -9.227770  87.909900   2.343440  -1.130360 -26.299000   6.405350   4.009650  14.145300  -1.864520   8.934190  28.105900  -5.020440   6.247760   1.516090  -0.169324  10.283200   2.965410  -1.990660  -2.579660  -3.272150   1.702550 -74.127000  20.179400 -10.057900  -0.584244 -15.400000 -19.062000  14.438100  -3.839860   1.851780  39.343900  34.901100 -52.850600 -35.021800  -0.001332  -0.000857 -12.628300  -0.002592  -0.001494 -32.430600   5.703690  -8.890530 -26.897000   0.001473   0.003166 -18.827900   0.002264   0.003511 -29.009400  -0.130367   0.234889 -43.514300  -0.003930  -0.000443 -28.980500   0.002993   0.011659 -28.581900  -0.128572   0.235805 -37.237700  -0.002550   0.003360 -24.800300  -0.002144   0.001592 -32.090200  -0.142781   0.227508 -48.135500  -0.002168   0.001198 -32.058300   0.000846  -0.000231   5.877280  -4.297850   9.304670  69.557900   7.359180   3.229040  -2.127640 -10.959100  12.299100 -10.965700   3.660070   2.666700 -44.501600  40.791600  80.688000  27.224000   0.001270  -0.000559   8.612010   0.001776   0.006347  35.365200   8.976260  12.398300  29.734500   0.007119   0.010632  20.814100   0.009046   0.004394  29.073700   2.670090   4.789590  43.778000   0.018846   0.011606  29.156200   0.016906   0.002531  28.659500   2.564120   4.680700  40.479400   0.023201   0.019011  26.959300   0.020523   0.000685  38.126300  -0.547896  -0.698024  57.194500   0.034777   0.000312  38.091500   0.015148  -0.017438  11.527900   7.948790   2.143200   1.016980  21.638000   7.885020  -7.677380  -7.271390  -0.421997   0.000000   0.000000   0.000000  13.105300  29.238600  -6.674530   0.549562   2.063780 -11.531600  -5.469790  -8.180730  -2.570610   0.000000   0.000000   0.000000
 -9.192330  87.896000   2.352420  -1.170410 -26.359400   6.341490   4.014370  14.166700  -1.842910   8.940560  28.150200  -4.979050   6.233710   1.557170  -0.171362  10.261300   3.046330  -1.922490  -2.577960  -3.279950   1.718120 -74.124600  20.187800 -10.073400  -0.581583 -15.356000 -19.052900  14.356100  -3.747790   1.882480  39.312900  34.878300 -52.822500 -35.063600  -0.001332  -0.000848 -12.662400  -0.002588  -0.001491 -32.464400   5.632880  -8.767330 -26.916800   0.001476   0.003166 -18.841700   0.002267   0.003573 -28.988600  -0.173113   0.312229 -43.483100  -0.003929  -0.000443 -28.959700   0.002996   0.011644 -28.580500  -0.170868   0.313376 -37.237500  -0.002549   0.003360 -24.800200  -0.002145   0.001592 -32.087500  -0.189760   0.302361 -48.131800  -0.002168   0.001199 -32.055800   0.000849  -0.000230   5.881740  -4.282930   9.298320  69.532800   7.363660   3.241820  -2.132100 -10.966600  12.273500 -10.979800   3.648680   2.668590 -44.549800  40.789700  80.713300  27.152300   0.001270  -0.000554   8.576150   0.001776   0.006350  35.346200   9.016550  12.462400  29.723700   0.014371   0.010659  20.806600   0.016423   0.003853  29.062500   2.708430   4.860780  43.763900   0.036432   0.017943  29.146800   0.028451   0.002138  28.652200   2.607880   4.761000  40.476200   0.040622   0.024040  26.957200   0.032732  -0.000460  38.117500  -0.545518  -0.695220  57.181200   0.060178  -0.003090  38.082700   0.023711  -0.032395  11.526500   7.844740   2.074630   0.967431  22.059600   7.759840  -7.470580  -8.098510  -0.228019  -0.000000   0.000000  -0.000000  13.120300  29.282600  -6.666900   0.527576   2.108310 -11.492700  -5.468870  -8.211200  -2.600480  -0.000000   0.000000   0.000000
 -9.153000  87.884600   2.362260  -1.209460 -26.409700   6.270580   4.017660  14.177400  -1.826040   8.943960  28.172600  -4.946050   6.220520   1.602700  -0.174673  10.240800   3.135840  -1.860970  -2.576440  -3.284240   1.733680 -74.128900  20.196200 -10.089000  -0.595953 -15.310900 -19.013500  14.261600  -3.598840   1.919660  39.256700  34.825200 -52.757600 -35.095100  -0.001331  -0.000843 -12.689100  -0.002584  -0.001491 -32.491300   5.554410  -8.642000 -26.927100   0.001479   0.003166 -18.849000   0.002270   0.003635 -28.950400  -0.212140   0.383172 -43.426400  -0.003929  -0.000444 -28.921900   0.002998   0.011629 -28.578800  -0.209607   0.384475 -37.236200  -0.002548   0.003360 -24.799400  -0.002146   0.001592 -32.074500  -0.232701   0.371017 -48.112700  -0.002168   0.001199 -32.043000   0.000850  -0.000229   5.887310  -4.265370   9.291350  69.513200   7.364300   3.243650  -2.139510 -10.967700  12.269900 -10.999100   3.614090   2.680780 -44.588800  40.785600  80.739400  27.092100   0.001274  -0.000551   8.546080   0.001775   0.006355  35.331100   9.052900  12.515200  29.721100   0.021438   0.010709  20.804800   0.023888   0.003677  29.056200   2.741100   4.919750  43.760800   0.047855   0.021392  29.144700   0.035510   0.002016  28.645900   2.645960   4.830690  40.475800   0.051303   0.026238  26.956900   0.039551  -0.000771  38.116200  -0.545178  -0.694820  57.179300   0.074212  -0.003576  38.081400   0.029665  -0.039781  11.516700   7.771560   2.058310   0.937063  22.407900   7.646910  -7.290440  -8.828620  -0.066053   0.000000   0.000000   0.000000  13.135600  29.318600  -6.648770   0.498494   2.157960 -11.436900  -5.473310  -8.246560  -2.656160  -0.000000   0.000000  -0.000000
 -9.111270  87.875800   2.372290  -1.241290 -26.443400   6.198190   4.018030  14.177300  -1.815680   8.941850  28.173000  -4.924480   6.208300   1.651110  -0.180319  10.222000   3.230830  -1.814160  -2.575680  -3.283420   1.738450 -74.151400  20.175500 -10.086300  -0.624167 -15.275700 -18.913900  14.183800  -3.472760   1.963550  39.209700  34.740700 -52.651100 -35.112000  -0.001332  -0.000846 -12.704200  -0.002585  -0.001507 -32.482200   5.513010  -8.584960 -26.914100   0.001475   0.003167 -18.839900   0.002270   0.003699 -28.908900  -0.241267   0.436646 -43.369200  -0.003929  -0.000445 -28.883800   0.002994   0.011613 -28.577200  -0.238708   0.437994 -37.200600  -0.002548   0.003360 -24.775700  -0.002145   0.001592 -32.045700  -0.264796   0.422777 -48.069900  -0.002168   0.001198 -32.014500   0.000848  -0.000231   5.893580  -4.247370   9.276980  69.505800   7.364060   3.223260  -2.194280 -10.941800  12.326600 -11.010700   3.551190   2.710400 -44.581200  40.762700  80.744000  27.055200   0.001284  -0.000534   8.527620   0.001772   0.006360  35.337100   9.079840  12.549700  29.731700   0.025727   0.010780  20.812300   0.028241   0.003338  29.066200   2.763870   4.957720  43.779800   0.045673   0.019292  29.157400   0.033611   0.001800  28.643600   2.671700   4.877390  40.518500   0.047108   0.023202  26.985300   0.036096  -0.001202  38.145900  -0.553218  -0.704303  57.223900   0.066152  -0.003183  38.111200   0.026486  -0.035481  11.497100   7.728520   2.070160   0.932692  22.638500   7.553460  -7.156910  -9.360100   0.077370  -0.000000   0.000000   0.000000  13.138400  29.347000  -6.628530   0.467028   2.205030 -11.371600  -5.477070  -8.285290  -2.714650   0.000000   0.000000   0.000000
